<svg xmlns="http://www.w3.org/2000/svg" x="0px" y="0px"
width="50" height="50"
viewBox="0 0 172 172"
style=" fill:#000000;"><g fill="none" fill-rule="nonzero" stroke="none" stroke-width="1" stroke-linecap="butt" stroke-linejoin="miter" stroke-miterlimit="10" stroke-dasharray="" stroke-dashoffset="0" font-family="none" font-weight="none" font-size="none" text-anchor="none" style="mix-blend-mode: normal"><path d="M0,172v-172h172v172z" fill="none"></path><g fill="#fbbe3f"><path d="M75.035,6.88c-3.25187,0 -6.1275,2.28438 -6.7725,5.4825l-1.6125,8.0625c-10.65594,3.14438 -20.23687,8.53281 -28.0575,16.0175l-7.525,-2.58c-3.06375,-1.03469 -6.42312,0.34938 -8.0625,3.1175l-10.965,18.92c-1.62594,2.82188 -1.06156,6.45 1.3975,8.6l6.02,5.375c-1.27656,5.18688 -2.2575,10.52156 -2.2575,16.125c0,5.60344 0.99438,10.93813 2.2575,16.125l-6.02,5.375c-2.44562,2.15 -3.02344,5.77813 -1.3975,8.6l10.8575,18.92c1.62594,2.82188 5.07938,4.16563 8.17,3.1175l7.525,-2.58c7.82063,7.48469 17.415,12.87313 28.0575,16.0175l1.6125,8.0625c0.645,3.18469 3.52063,5.4825 6.7725,5.4825h21.93c3.25188,0 6.1275,-2.28437 6.7725,-5.4825l1.6125,-8.0625c10.65594,-3.14437 20.23688,-8.53281 28.0575,-16.0175l7.525,2.58c3.06375,1.03469 6.42313,-0.34937 8.0625,-3.1175l10.965,-18.92c1.62594,-2.82187 1.04813,-6.45 -1.3975,-8.6l-6.02,-5.375c1.26313,-5.18687 2.2575,-10.52156 2.2575,-16.125c0,-5.60344 -0.99437,-10.93812 -2.2575,-16.125l6.02,-5.375c2.44563,-2.15 3.02344,-5.77812 1.3975,-8.6l-10.8575,-18.92c-1.62594,-2.82187 -5.07937,-4.16562 -8.17,-3.1175l-7.525,2.58c-7.82062,-7.48469 -17.415,-12.87312 -28.0575,-16.0175l-1.6125,-8.0625c-0.645,-3.18469 -3.52062,-5.4825 -6.7725,-5.4825zM75.035,13.76h21.93l2.365,11.825l2.0425,0.5375c11.12625,2.84875 21.02969,8.6 28.81,16.555l1.505,1.6125l2.15,-0.7525l9.245,-3.1175l10.965,18.92l-7.4175,6.5575l-1.6125,1.3975l0.5375,2.0425c1.47813,5.32125 2.365,10.91125 2.365,16.6625c0,5.75125 -0.88687,11.34125 -2.365,16.6625l-0.5375,2.0425l1.6125,1.3975l7.4175,6.5575l-10.965,18.92l-9.3525,-3.1175l-2.0425,-0.7525l-1.505,1.6125c-7.78031,7.94156 -17.68375,13.70625 -28.81,16.555l-2.0425,0.5375l-2.365,11.825h-21.93l-2.365,-11.825l-2.0425,-0.5375c-11.12625,-2.84875 -21.02969,-8.6 -28.81,-16.555l-1.505,-1.6125l-2.15,0.7525l-9.245,3.1175l-10.965,-18.92l7.4175,-6.5575l1.6125,-1.3975l-0.5375,-2.0425c-1.47812,-5.32125 -2.365,-10.91125 -2.365,-16.6625c0,-5.75125 0.87344,-11.34125 2.365,-16.6625l0.5375,-2.0425l-1.6125,-1.3975l-7.4175,-6.5575l10.965,-18.92l9.3525,3.1175l2.0425,0.7525l1.505,-1.6125c7.78031,-7.94156 17.68375,-13.70625 28.81,-16.555l2.0425,-0.5375zM120.0775,61.8125c-0.14781,0.02688 -0.29562,0.06719 -0.43,0.1075h-2.6875c-0.1075,0 -0.215,0 -0.3225,0c-1.89469,0.09406 -3.37281,1.70656 -3.27875,3.60125c0.09406,1.89469 1.70656,3.37281 3.60125,3.27875v34.4c-0.1075,0 -0.215,0 -0.3225,0c-1.89469,0.09406 -3.37281,1.70656 -3.27875,3.60125c0.09406,1.89469 1.70656,3.37281 3.60125,3.27875h6.88c1.23625,0.01344 2.39188,-0.63156 3.02344,-1.70656c0.61813,-1.075 0.61813,-2.39187 0,-3.46687c-0.63156,-1.075 -1.78719,-1.72 -3.02344,-1.70656v-34.4c1.23625,0.01344 2.39188,-0.63156 3.02344,-1.70656c0.61813,-1.075 0.61813,-2.39187 0,-3.46687c-0.63156,-1.075 -1.78719,-1.72 -3.02344,-1.70656h-2.795c-0.30906,-0.08062 -0.645,-0.12094 -0.9675,-0.1075zM56.33,61.92c-1.38406,0.16125 -2.52625,1.14219 -2.9025,2.4725l-12.04,39.13c-0.09406,0.34938 -0.13437,0.71219 -0.1075,1.075v2.0425c-0.01344,1.23625 0.63156,2.39188 1.70656,3.02344c1.075,0.61813 2.39187,0.61813 3.46687,0c1.075,-0.63156 1.72,-1.78719 1.70656,-3.02344v-1.3975l1.72,-5.4825h13.76l1.72,5.4825v1.3975c-0.01344,1.23625 0.63156,2.39188 1.70656,3.02344c1.075,0.61813 2.39187,0.61813 3.46687,0c1.075,-0.63156 1.72,-1.78719 1.70656,-3.02344v-2.0425c0.02688,-0.36281 -0.01344,-0.72562 -0.1075,-1.075l-12.04,-39.13c-0.47031,-1.63937 -2.06937,-2.70094 -3.7625,-2.4725zM81.915,61.92c-1.63937,0.30906 -2.82187,1.76031 -2.795,3.44v23.435c-0.09406,0.45688 -0.09406,0.94063 0,1.3975v16.4475c-0.01344,1.23625 0.63156,2.39188 1.70656,3.02344c1.075,0.61813 2.39187,0.61813 3.46687,0c1.075,-0.63156 1.72,-1.78719 1.70656,-3.02344v-13.76h10.32c5.65719,0 10.32,-4.66281 10.32,-10.32v-10.32c0,-5.65719 -4.66281,-10.32 -10.32,-10.32h-13.76c-0.1075,0 -0.215,0 -0.3225,0c-0.1075,0 -0.215,0 -0.3225,0zM86,68.8h10.32c1.94844,0 3.44,1.49156 3.44,3.44v10.32c0,1.94844 -1.49156,3.44 -3.44,3.44h-10.32zM56.76,77.185l4.8375,15.695h-9.675z"></path></g></g></svg>