<svg xmlns="http://www.w3.org/2000/svg" x="0px" y="0px"
width="26" height="26"
viewBox="0 0 172 172"
style=" fill:#000000;"><g fill="none" fill-rule="nonzero" stroke="none" stroke-width="1" stroke-linecap="butt" stroke-linejoin="miter" stroke-miterlimit="10" stroke-dasharray="" stroke-dashoffset="0" font-family="none" font-weight="none" font-size="none" text-anchor="none" style="mix-blend-mode: normal"><path d="M0,172v-172h172v172z" fill="none"></path><g fill="#fbbe3f"><path d="M32.45673,0c-17.85637,0 -32.45673,14.60036 -32.45673,32.45673v107.08654c0,17.85637 14.60036,32.45673 32.45673,32.45673h107.08654c17.85637,0 32.45673,-14.60036 32.45673,-32.45673v-107.08654c0,-17.85637 -14.60036,-32.45673 -32.45673,-32.45673zM52.92308,65.53365c4.6256,0 7.93329,1.18871 9.92308,1.86058c0.67188,0 0.62019,0.82692 0.62019,0.82692l-1.86058,5.78846c0,0 -0.15504,0.82692 -0.82692,0.82692h-0.62019c-1.98978,-0.67187 -4.54808,-2.06731 -7.85577,-2.06731c-4.6256,0 -5.99519,2.60997 -5.99519,3.92788c0,2.63582 1.29207,4.00541 7.23558,5.99519c7.28726,2.63582 10.54327,6.66707 10.54327,12.61058c0,5.94351 -3.79868,13.23077 -15.71154,13.23077c-4.6256,0 -9.38041,-1.36959 -11.37019,-2.6875l-0.62019,-0.62019l2.06731,-5.99519c0,0 -0.05168,-0.62019 0.62019,-0.62019h0.62019c1.98978,1.31791 5.32332,2.6875 9.30288,2.6875c3.97957,0 6.61538,-2.11899 6.61538,-4.75481c0,-1.98978 -1.31791,-4.00541 -6.61538,-5.99519c-7.93329,-2.63581 -11.37019,-6.46033 -11.37019,-12.40385c0,-7.28726 6.04688,-12.61058 15.29808,-12.61058zM86.62019,65.53365c11.24099,0 19.22596,8.52765 19.22596,21.08654c0,8.60517 -3.35937,15.29808 -9.30288,18.60577c2.63582,0.67188 6.04688,1.18871 8.68269,1.86058c0,0 0.62019,0.15505 0.62019,0.82692v0.62019l-1.24038,5.16827c0,0.67188 -0.82692,0.82692 -0.82692,0.82692c-5.29747,-1.31791 -9.76803,-2.73918 -15.71154,-5.375c-0.67187,0 -1.36959,-0.62019 -2.6875,-0.62019c-9.2512,-0.67187 -18.60577,-7.39062 -18.60577,-21.29327c0,-13.23077 7.93329,-21.70673 19.84615,-21.70673zM112.04808,66.15385c0.15505,-0.07753 0.41346,0 0.41346,0h6.61538c0.67188,0 0.62019,0.62019 0.62019,0.62019v33.07692h15.91827c0.67188,0 0.62019,0.62019 0.62019,0.62019v6.61538h0.62019c0,0.67188 -0.62019,0.82692 -0.62019,0.82692h-23.77404c-0.67187,0 -0.62019,-0.82692 -0.62019,-0.82692v-40.3125c0,-0.33594 0.05169,-0.54267 0.20673,-0.62019zM86.62019,72.76923c-7.28726,0 -10.54327,7.23558 -10.54327,13.85096c0,7.93329 3.97957,13.85096 9.92308,13.85096c7.28726,0 10.54327,-7.23558 10.54327,-13.85096c0.67188,-6.61538 -2.63581,-13.85096 -9.92308,-13.85096z"></path></g></g></svg>